{"title":"CSI New York [6x11] [HDTV + H264 + AC3 + Spanish]","uid":5575451,"size":367521746,"categoryP":"video","categoryS":"hd___tv_shows","magnet":"?xt=urn:btih:c98b2f9530699630613cdce7c09b398433498050&amp;dn=CSI+New+York+%5B6x11%5D+%5BHDTV+%2B+H264+%2B+AC3+%2B+Spanish%5D&amp;tr=udp%3A%2F%2Ftracker.openbittorrent.com%3A80&amp;tr=udp%3A%2F%2Fopen.demonii.com%3A1337&amp;tr=udp%3A%2F%2Ftracker.coppersurfer.tk%3A6969&amp;tr=udp%3A%2F%2Fexodus.desync.com%3A6969","seeders":0,"leechers":1,"uploader":"fleqii","files":1,"time":1274372165,"description":"C:UsersJoelDesktopCaratulasAudiosCSI New York [6x11] [HDTV + H264 + AC3 + Spanish].mkv\n   General\n      Complete name : C:UsersJoelDesktopCaratulasAudiosCSI New York [6x11] [HDTV + H264 + AC3 + Spanish].mkv\n      Format : Matroska\n      File size : 350 MiB\n      Duration : 41mn 9s\n      Overall bit rate : 1 191 Kbps\n      Encoded date : UTC 2010-05-20 10:27:37\n      Writing application : VirtualDubMod 1.5.10.2 (build 2540/release)\n      Writing library : libebml-0.7.5 &amp; libmatroska-0.7.7\n   Video #1\n      ID : 1\n      Format : AVC\n      Format/Info : Advanced Video Codec\n      Format profile : &lt;a class=&quot;__cf_email__&quot; href=&quot;/cdn-cgi/l/email-protection&quot; data-cfemail=&quot;337b5a545b737f001d03&quot;&gt;[email&amp;#160;protected]&lt;/a&gt;&lt;script cf-hash='f9e31' type=&quot;text/javascript&quot;&gt;\n/* &lt;![CDATA[ */!function(){try{var t=&quot;currentScript&quot;in document?document.currentScript:function(){for(var t=document.getElementsByTagName(&quot;script&quot;),e=t.length;e--;)if(t[e].getAttribute(&quot;cf-hash&quot;))return t[e]}();if(t&amp;&amp;t.previousSibling){var e,r,n,i,c=t.previousSibling,a=c.getAttribute(&quot;data-cfemail&quot;);if(a){for(e=&quot;&quot;,r=parseInt(a.substr(0,2),16),n=2;a.length-n;n+=2)i=parseInt(a.substr(n,2),16)^r,e+=String.fromCharCode(i);e=document.createTextNode(e),c.parentNode.replaceChild(e,c)}}}catch(u){}}();/* ]]&gt; */&lt;/script&gt;\n      Format settings, CABAC : Yes\n      Format settings, ReFrames : 1 frame\n      Codec ID : H264\n      Duration : 41mn 9s\n      Bit rate : 719 Kbps\n      Nominal bit rate : 730 Kbps\n      Width : 624 pixels\n      Height : 352 pixels\n      Display aspect ratio : 16:9\n      Original display aspect ratio : 16:9\n      Frame rate : 25.000 fps\n      Resolution : 24 bits\n      Colorimetry : 4:2:0\n      Scan type : Progressive\n      Bits/(Pixel*Frame) : 0.131\n      Stream size : 212 MiB (60%)\n      Writing library : x264 core 68 r1195bm 5d75a9b\n      Encoding settings : cabac=1 / ref=1 / deblock=1:0:0 / analyse=0x3:0x33 / me=umh / subme=7 / psy_rd=0.0:0.0 / mixed_ref=0 / me_range=16 / chroma_me=1 / trellis=1 / 8x8dct=1 / cqm=0 / deadzone=21,11 / chroma_qp_offset=0 / threads=1 / thread_queue=1 / nr=0 / decimate=1 / mbaff=0 / bframes=0 / keyint=250 / keyint_min=25 / scenecut=40 / rc=abr / bitrate=730 / ratetol=1.0 / qcomp=0.60 / qpmin=10 / qpmax=51 / qpstep=4 / ip_ratio=1.40 / aq=2:1.00\n   Audio #2\n      ID : 2\n      Format : AC-3\n      Format/Info : Audio Coding 3\n      Codec ID : A_AC3\n      Duration : 41mn 9s\n      Bit rate mode : Constant\n      Bit rate : 448 Kbps\n      Channel(s) : 2 channels\n      Channel positions : L R\n      Sampling rate : 48.0 KHz\n      Stream size : 132 MiB (38%)","torrent":{"xt":"urn:btih:c98b2f9530699630613cdce7c09b398433498050","amp;dn":"CSI+New+York+%5B6x11%5D+%5BHDTV+%2B+H264+%2B+AC3+%2B+Spanish%5D","amp;tr":["udp%3A%2F%2Ftracker.openbittorrent.com%3A80","udp%3A%2F%2Fopen.demonii.com%3A1337","udp%3A%2F%2Ftracker.coppersurfer.tk%3A6969","udp%3A%2F%2Fexodus.desync.com%3A6969"],"infoHash":"c98b2f9530699630613cdce7c09b398433498050","infoHashBuffer":{"type":"Buffer","data":[201,139,47,149,48,105,150,48,97,60,220,231,192,155,57,132,51,73,128,80]},"announce":[],"urlList":[]}}